<mxfile host="app.diagrams.net" agent="Mozilla/5.0 (Windows NT 10.0; Win64; x64) AppleWebKit/537.36 (KHTML, like Gecko) Chrome/129.0.0.0 Safari/537.36" version="24.7.17">
  <diagram name="Page-1" id="SSqOfVP8aOO2r5Aqcer_">
    <mxGraphModel dx="4355" dy="3015" grid="1" gridSize="10" guides="1" tooltips="1" connect="1" arrows="1" fold="1" page="1" pageScale="1" pageWidth="850" pageHeight="1100" math="0" shadow="0">
      <root>
        <mxCell id="0" />
        <mxCell id="1" parent="0" />
        <mxCell id="VfQvzh1gx931IIodMsVt-233" value="Start" style="whiteSpace=wrap;strokeWidth=2;" vertex="1" parent="1">
          <mxGeometry x="2507" y="20" width="95" height="48" as="geometry" />
        </mxCell>
        <mxCell id="VfQvzh1gx931IIodMsVt-234" value="Selamat datang di Parfume by HMNS" style="whiteSpace=wrap;strokeWidth=2;" vertex="1" parent="1">
          <mxGeometry x="2428" y="118" width="254" height="66" as="geometry" />
        </mxCell>
        <mxCell id="VfQvzh1gx931IIodMsVt-313" style="edgeStyle=orthogonalEdgeStyle;rounded=0;orthogonalLoop=1;jettySize=auto;html=1;exitX=0.5;exitY=1;exitDx=0;exitDy=0;entryX=0.5;entryY=0;entryDx=0;entryDy=0;" edge="1" parent="1" source="VfQvzh1gx931IIodMsVt-235" target="VfQvzh1gx931IIodMsVt-237">
          <mxGeometry relative="1" as="geometry" />
        </mxCell>
        <mxCell id="VfQvzh1gx931IIodMsVt-235" value="Pilih Aksi" style="whiteSpace=wrap;strokeWidth=2;" vertex="1" parent="1">
          <mxGeometry x="2493" y="234" width="123" height="48" as="geometry" />
        </mxCell>
        <mxCell id="VfQvzh1gx931IIodMsVt-236" value="1. Masuk" style="whiteSpace=wrap;strokeWidth=2;" vertex="1" parent="1">
          <mxGeometry x="2211" y="330" width="60" height="30" as="geometry" />
        </mxCell>
        <mxCell id="VfQvzh1gx931IIodMsVt-237" value="2. Daftar" style="whiteSpace=wrap;strokeWidth=2;" vertex="1" parent="1">
          <mxGeometry x="2524.5" y="320" width="60" height="30" as="geometry" />
        </mxCell>
        <mxCell id="VfQvzh1gx931IIodMsVt-324" style="edgeStyle=orthogonalEdgeStyle;rounded=0;orthogonalLoop=1;jettySize=auto;html=1;exitX=0.5;exitY=1;exitDx=0;exitDy=0;" edge="1" parent="1" source="VfQvzh1gx931IIodMsVt-238" target="VfQvzh1gx931IIodMsVt-265">
          <mxGeometry relative="1" as="geometry" />
        </mxCell>
        <mxCell id="VfQvzh1gx931IIodMsVt-238" value="3. Keluar" style="whiteSpace=wrap;strokeWidth=2;" vertex="1" parent="1">
          <mxGeometry x="2860" y="330" width="60" height="30" as="geometry" />
        </mxCell>
        <mxCell id="VfQvzh1gx931IIodMsVt-329" style="edgeStyle=orthogonalEdgeStyle;rounded=0;orthogonalLoop=1;jettySize=auto;html=1;exitX=0.5;exitY=1;exitDx=0;exitDy=0;" edge="1" parent="1" source="VfQvzh1gx931IIodMsVt-239" target="VfQvzh1gx931IIodMsVt-240">
          <mxGeometry relative="1" as="geometry" />
        </mxCell>
        <mxCell id="VfQvzh1gx931IIodMsVt-239" value="Masukkan Nama Pengguna dan Kata Sandi" style="whiteSpace=wrap;strokeWidth=2;" vertex="1" parent="1">
          <mxGeometry x="1854.5" y="330" width="247" height="66" as="geometry" />
        </mxCell>
        <mxCell id="VfQvzh1gx931IIodMsVt-240" value="Validasi Pengguna" style="rhombus;strokeWidth=2;whiteSpace=wrap;" vertex="1" parent="1">
          <mxGeometry x="1890" y="488" width="176" height="176" as="geometry" />
        </mxCell>
        <mxCell id="VfQvzh1gx931IIodMsVt-340" style="edgeStyle=orthogonalEdgeStyle;rounded=0;orthogonalLoop=1;jettySize=auto;html=1;exitX=0.5;exitY=1;exitDx=0;exitDy=0;entryX=0.5;entryY=0;entryDx=0;entryDy=0;" edge="1" parent="1" source="VfQvzh1gx931IIodMsVt-241" target="VfQvzh1gx931IIodMsVt-244">
          <mxGeometry relative="1" as="geometry" />
        </mxCell>
        <mxCell id="VfQvzh1gx931IIodMsVt-241" value="Admin Menu" style="whiteSpace=wrap;strokeWidth=2;" vertex="1" parent="1">
          <mxGeometry x="1485" y="656.5" width="148" height="48" as="geometry" />
        </mxCell>
        <mxCell id="VfQvzh1gx931IIodMsVt-242" value="User Menu" style="whiteSpace=wrap;strokeWidth=2;" vertex="1" parent="1">
          <mxGeometry x="2271" y="1210" width="134" height="48" as="geometry" />
        </mxCell>
        <mxCell id="VfQvzh1gx931IIodMsVt-243" value="Gagal Masuk Setelah 3 Percobaan" style="whiteSpace=wrap;strokeWidth=2;" vertex="1" parent="1">
          <mxGeometry x="2113" y="543" width="220" height="66" as="geometry" />
        </mxCell>
        <mxCell id="VfQvzh1gx931IIodMsVt-382" style="edgeStyle=orthogonalEdgeStyle;rounded=0;orthogonalLoop=1;jettySize=auto;html=1;exitX=0.5;exitY=1;exitDx=0;exitDy=0;entryX=0.5;entryY=0;entryDx=0;entryDy=0;" edge="1" parent="1" source="VfQvzh1gx931IIodMsVt-244" target="VfQvzh1gx931IIodMsVt-256">
          <mxGeometry relative="1" as="geometry" />
        </mxCell>
        <mxCell id="VfQvzh1gx931IIodMsVt-244" value="Pilih Aksi Admin" style="whiteSpace=wrap;strokeWidth=2;" vertex="1" parent="1">
          <mxGeometry x="1473" y="780" width="172" height="48" as="geometry" />
        </mxCell>
        <mxCell id="VfQvzh1gx931IIodMsVt-345" style="edgeStyle=orthogonalEdgeStyle;rounded=0;orthogonalLoop=1;jettySize=auto;html=1;exitX=0.5;exitY=1;exitDx=0;exitDy=0;entryX=0.5;entryY=0;entryDx=0;entryDy=0;" edge="1" parent="1" source="VfQvzh1gx931IIodMsVt-245" target="VfQvzh1gx931IIodMsVt-246">
          <mxGeometry relative="1" as="geometry" />
        </mxCell>
        <mxCell id="VfQvzh1gx931IIodMsVt-245" value="1. Tambah Parfum" style="whiteSpace=wrap;strokeWidth=2;" vertex="1" parent="1">
          <mxGeometry x="1134.48" y="940" width="95.52" height="47.56" as="geometry" />
        </mxCell>
        <mxCell id="VfQvzh1gx931IIodMsVt-344" style="edgeStyle=orthogonalEdgeStyle;rounded=0;orthogonalLoop=1;jettySize=auto;html=1;exitX=1;exitY=0.5;exitDx=0;exitDy=0;" edge="1" parent="1" source="VfQvzh1gx931IIodMsVt-246">
          <mxGeometry relative="1" as="geometry">
            <mxPoint x="1262.3684210526317" y="1060.7894736842106" as="targetPoint" />
          </mxGeometry>
        </mxCell>
        <mxCell id="VfQvzh1gx931IIodMsVt-346" style="edgeStyle=orthogonalEdgeStyle;rounded=0;orthogonalLoop=1;jettySize=auto;html=1;exitX=0.5;exitY=1;exitDx=0;exitDy=0;" edge="1" parent="1" source="VfQvzh1gx931IIodMsVt-246" target="VfQvzh1gx931IIodMsVt-247">
          <mxGeometry relative="1" as="geometry" />
        </mxCell>
        <mxCell id="VfQvzh1gx931IIodMsVt-246" value="Form Tambah Parfum" style="whiteSpace=wrap;strokeWidth=2;" vertex="1" parent="1">
          <mxGeometry x="1076.24" y="1019" width="212" height="48" as="geometry" />
        </mxCell>
        <mxCell id="VfQvzh1gx931IIodMsVt-247" value="Parfum Berhasil Ditambahkan" style="whiteSpace=wrap;strokeWidth=2;" vertex="1" parent="1">
          <mxGeometry x="1095.74" y="1117" width="173" height="66" as="geometry" />
        </mxCell>
        <mxCell id="VfQvzh1gx931IIodMsVt-354" style="edgeStyle=orthogonalEdgeStyle;rounded=0;orthogonalLoop=1;jettySize=auto;html=1;exitX=0.5;exitY=1;exitDx=0;exitDy=0;entryX=0.5;entryY=0;entryDx=0;entryDy=0;" edge="1" parent="1" source="VfQvzh1gx931IIodMsVt-248" target="VfQvzh1gx931IIodMsVt-249">
          <mxGeometry relative="1" as="geometry" />
        </mxCell>
        <mxCell id="VfQvzh1gx931IIodMsVt-248" value="2. Lihat Deskripsi Parfum" style="whiteSpace=wrap;strokeWidth=2;" vertex="1" parent="1">
          <mxGeometry x="1343.5" y="948.78" width="144.5" height="60" as="geometry" />
        </mxCell>
        <mxCell id="VfQvzh1gx931IIodMsVt-377" style="edgeStyle=orthogonalEdgeStyle;rounded=0;orthogonalLoop=1;jettySize=auto;html=1;exitX=0.5;exitY=1;exitDx=0;exitDy=0;entryX=0.5;entryY=0;entryDx=0;entryDy=0;" edge="1" parent="1" source="VfQvzh1gx931IIodMsVt-250" target="VfQvzh1gx931IIodMsVt-251">
          <mxGeometry relative="1" as="geometry" />
        </mxCell>
        <mxCell id="VfQvzh1gx931IIodMsVt-250" value="3. Ubah Parfum" style="whiteSpace=wrap;strokeWidth=2;" vertex="1" parent="1">
          <mxGeometry x="1640" y="959.39" width="127" height="38.78" as="geometry" />
        </mxCell>
        <mxCell id="VfQvzh1gx931IIodMsVt-378" style="edgeStyle=orthogonalEdgeStyle;rounded=0;orthogonalLoop=1;jettySize=auto;html=1;exitX=0.5;exitY=1;exitDx=0;exitDy=0;entryX=0.5;entryY=0;entryDx=0;entryDy=0;" edge="1" parent="1" source="VfQvzh1gx931IIodMsVt-251" target="VfQvzh1gx931IIodMsVt-252">
          <mxGeometry relative="1" as="geometry" />
        </mxCell>
        <mxCell id="VfQvzh1gx931IIodMsVt-251" value="Form Ubah Parfum" style="whiteSpace=wrap;strokeWidth=2;" vertex="1" parent="1">
          <mxGeometry x="1607" y="1067" width="193" height="48" as="geometry" />
        </mxCell>
        <mxCell id="VfQvzh1gx931IIodMsVt-252" value="Parfum Berhasil Diubah" style="whiteSpace=wrap;strokeWidth=2;" vertex="1" parent="1">
          <mxGeometry x="1605.13" y="1210" width="196.75" height="48" as="geometry" />
        </mxCell>
        <mxCell id="VfQvzh1gx931IIodMsVt-362" style="edgeStyle=orthogonalEdgeStyle;rounded=0;orthogonalLoop=1;jettySize=auto;html=1;exitX=0.5;exitY=1;exitDx=0;exitDy=0;" edge="1" parent="1" source="VfQvzh1gx931IIodMsVt-253">
          <mxGeometry relative="1" as="geometry">
            <mxPoint x="1996.666666666667" y="1080" as="targetPoint" />
          </mxGeometry>
        </mxCell>
        <mxCell id="VfQvzh1gx931IIodMsVt-253" value="4. Hapus Parfum" style="whiteSpace=wrap;strokeWidth=2;" vertex="1" parent="1">
          <mxGeometry x="1940" y="961.22" width="113" height="44" as="geometry" />
        </mxCell>
        <mxCell id="VfQvzh1gx931IIodMsVt-363" style="edgeStyle=orthogonalEdgeStyle;rounded=0;orthogonalLoop=1;jettySize=auto;html=1;exitX=0.5;exitY=1;exitDx=0;exitDy=0;entryX=0.5;entryY=0;entryDx=0;entryDy=0;" edge="1" parent="1" source="VfQvzh1gx931IIodMsVt-254" target="VfQvzh1gx931IIodMsVt-255">
          <mxGeometry relative="1" as="geometry" />
        </mxCell>
        <mxCell id="VfQvzh1gx931IIodMsVt-254" value="Konfirmasi Hapus" style="whiteSpace=wrap;strokeWidth=2;" vertex="1" parent="1">
          <mxGeometry x="1905" y="1082" width="183" height="48" as="geometry" />
        </mxCell>
        <mxCell id="VfQvzh1gx931IIodMsVt-255" value="Parfum Berhasil Dihapus" style="whiteSpace=wrap;strokeWidth=2;" vertex="1" parent="1">
          <mxGeometry x="1880" y="1210" width="233" height="48" as="geometry" />
        </mxCell>
        <mxCell id="VfQvzh1gx931IIodMsVt-256" value="5. Keluar Admin Menu" style="whiteSpace=wrap;strokeWidth=2;" vertex="1" parent="1">
          <mxGeometry x="1482" y="1346" width="157" height="50" as="geometry" />
        </mxCell>
        <mxCell id="VfQvzh1gx931IIodMsVt-257" value="Pilih Aksi Pengguna" style="whiteSpace=wrap;strokeWidth=2;" vertex="1" parent="1">
          <mxGeometry x="2244" y="1290" width="196" height="48" as="geometry" />
        </mxCell>
        <mxCell id="VfQvzh1gx931IIodMsVt-399" style="edgeStyle=orthogonalEdgeStyle;rounded=0;orthogonalLoop=1;jettySize=auto;html=1;exitX=0.75;exitY=1;exitDx=0;exitDy=0;" edge="1" parent="1" source="VfQvzh1gx931IIodMsVt-258">
          <mxGeometry relative="1" as="geometry">
            <mxPoint x="2280" y="1490" as="targetPoint" />
          </mxGeometry>
        </mxCell>
        <mxCell id="VfQvzh1gx931IIodMsVt-400" style="edgeStyle=orthogonalEdgeStyle;rounded=0;orthogonalLoop=1;jettySize=auto;html=1;exitX=0.5;exitY=1;exitDx=0;exitDy=0;entryX=0.5;entryY=0;entryDx=0;entryDy=0;" edge="1" parent="1" source="VfQvzh1gx931IIodMsVt-258" target="VfQvzh1gx931IIodMsVt-259">
          <mxGeometry relative="1" as="geometry" />
        </mxCell>
        <mxCell id="VfQvzh1gx931IIodMsVt-258" value="1. Lihat Deskripsi Parfum" style="whiteSpace=wrap;strokeWidth=2;" vertex="1" parent="1">
          <mxGeometry x="2148" y="1430" width="150" height="50" as="geometry" />
        </mxCell>
        <mxCell id="VfQvzh1gx931IIodMsVt-259" value="Tampilkan Deskripsi Parfum" style="whiteSpace=wrap;strokeWidth=2;" vertex="1" parent="1">
          <mxGeometry x="2094.5" y="1530" width="257" height="48" as="geometry" />
        </mxCell>
        <mxCell id="VfQvzh1gx931IIodMsVt-260" value="2. Keluar User Menu" style="whiteSpace=wrap;strokeWidth=2;" vertex="1" parent="1">
          <mxGeometry x="2340" y="1600" width="100" height="37" as="geometry" />
        </mxCell>
        <mxCell id="VfQvzh1gx931IIodMsVt-261" value="Masukkan Nama dan Kata Sandi Baru" style="whiteSpace=wrap;strokeWidth=2;" vertex="1" parent="1">
          <mxGeometry x="2440" y="440" width="242" height="66" as="geometry" />
        </mxCell>
        <mxCell id="VfQvzh1gx931IIodMsVt-327" style="edgeStyle=orthogonalEdgeStyle;rounded=0;orthogonalLoop=1;jettySize=auto;html=1;exitX=0;exitY=0.5;exitDx=0;exitDy=0;" edge="1" parent="1" source="VfQvzh1gx931IIodMsVt-262">
          <mxGeometry relative="1" as="geometry">
            <mxPoint x="2430" y="870" as="targetPoint" />
          </mxGeometry>
        </mxCell>
        <mxCell id="VfQvzh1gx931IIodMsVt-262" value="Validasi Nama Pengguna" style="rhombus;strokeWidth=2;whiteSpace=wrap;" vertex="1" parent="1">
          <mxGeometry x="2450.5" y="570" width="219.5" height="221" as="geometry" />
        </mxCell>
        <mxCell id="VfQvzh1gx931IIodMsVt-263" value="Nama Pengguna Sudah Digunakan" style="whiteSpace=wrap;strokeWidth=2;" vertex="1" parent="1">
          <mxGeometry x="2350" y="872" width="220" height="66" as="geometry" />
        </mxCell>
        <mxCell id="VfQvzh1gx931IIodMsVt-264" value="Pengguna Berhasil Didaftarkan" style="whiteSpace=wrap;strokeWidth=2;" vertex="1" parent="1">
          <mxGeometry x="2590" y="872" width="189" height="66" as="geometry" />
        </mxCell>
        <mxCell id="VfQvzh1gx931IIodMsVt-265" value="Keluar dari Sistem" style="whiteSpace=wrap;strokeWidth=2;" vertex="1" parent="1">
          <mxGeometry x="2795" y="440" width="190" height="48" as="geometry" />
        </mxCell>
        <mxCell id="VfQvzh1gx931IIodMsVt-266" value="End" style="whiteSpace=wrap;strokeWidth=2;" vertex="1" parent="1">
          <mxGeometry x="2847" y="1162" width="86" height="48" as="geometry" />
        </mxCell>
        <mxCell id="VfQvzh1gx931IIodMsVt-267" value="" style="curved=1;startArrow=none;endArrow=block;exitX=0.5;exitY=1.01;entryX=0.5;entryY=0.01;rounded=0;" edge="1" parent="1" source="VfQvzh1gx931IIodMsVt-233" target="VfQvzh1gx931IIodMsVt-234">
          <mxGeometry relative="1" as="geometry">
            <Array as="points" />
          </mxGeometry>
        </mxCell>
        <mxCell id="VfQvzh1gx931IIodMsVt-268" value="" style="curved=1;startArrow=none;endArrow=block;exitX=0.5;exitY=1.01;entryX=0.5;entryY=0.01;rounded=0;" edge="1" parent="1" source="VfQvzh1gx931IIodMsVt-234" target="VfQvzh1gx931IIodMsVt-235">
          <mxGeometry relative="1" as="geometry">
            <Array as="points" />
          </mxGeometry>
        </mxCell>
        <mxCell id="VfQvzh1gx931IIodMsVt-316" style="edgeStyle=orthogonalEdgeStyle;rounded=0;orthogonalLoop=1;jettySize=auto;html=1;exitX=0.5;exitY=1;exitDx=0;exitDy=0;entryX=0.471;entryY=0.011;entryDx=0;entryDy=0;entryPerimeter=0;" edge="1" parent="1" source="VfQvzh1gx931IIodMsVt-237" target="VfQvzh1gx931IIodMsVt-261">
          <mxGeometry relative="1" as="geometry" />
        </mxCell>
        <mxCell id="VfQvzh1gx931IIodMsVt-321" value="" style="endArrow=classic;html=1;rounded=0;entryX=1;entryY=1;entryDx=0;entryDy=0;exitX=1;exitY=0.5;exitDx=0;exitDy=0;" edge="1" parent="1" source="VfQvzh1gx931IIodMsVt-264" target="VfQvzh1gx931IIodMsVt-235">
          <mxGeometry width="50" height="50" relative="1" as="geometry">
            <mxPoint x="2779" y="740" as="sourcePoint" />
            <mxPoint x="2690" y="520" as="targetPoint" />
            <Array as="points">
              <mxPoint x="2779" y="510" />
            </Array>
          </mxGeometry>
        </mxCell>
        <mxCell id="VfQvzh1gx931IIodMsVt-322" value="" style="endArrow=classic;html=1;rounded=0;exitX=0;exitY=0.5;exitDx=0;exitDy=0;entryX=0;entryY=1;entryDx=0;entryDy=0;" edge="1" parent="1" source="VfQvzh1gx931IIodMsVt-263" target="VfQvzh1gx931IIodMsVt-235">
          <mxGeometry width="50" height="50" relative="1" as="geometry">
            <mxPoint x="2450" y="610" as="sourcePoint" />
            <mxPoint x="2450" y="370" as="targetPoint" />
            <Array as="points">
              <mxPoint x="2350" y="510" />
            </Array>
          </mxGeometry>
        </mxCell>
        <mxCell id="VfQvzh1gx931IIodMsVt-326" style="edgeStyle=orthogonalEdgeStyle;rounded=0;orthogonalLoop=1;jettySize=auto;html=1;entryX=0.547;entryY=0.01;entryDx=0;entryDy=0;entryPerimeter=0;exitX=1;exitY=0.5;exitDx=0;exitDy=0;" edge="1" parent="1" source="VfQvzh1gx931IIodMsVt-262" target="VfQvzh1gx931IIodMsVt-264">
          <mxGeometry relative="1" as="geometry" />
        </mxCell>
        <mxCell id="VfQvzh1gx931IIodMsVt-348" value="" style="endArrow=classic;html=1;rounded=0;exitX=0;exitY=0.5;exitDx=0;exitDy=0;entryX=0;entryY=0.5;entryDx=0;entryDy=0;" edge="1" parent="1" source="VfQvzh1gx931IIodMsVt-247" target="VfQvzh1gx931IIodMsVt-241">
          <mxGeometry width="50" height="50" relative="1" as="geometry">
            <mxPoint x="1020" y="1240" as="sourcePoint" />
            <mxPoint x="1220" y="700" as="targetPoint" />
            <Array as="points">
              <mxPoint x="1040" y="1150" />
              <mxPoint x="1110" y="810" />
            </Array>
          </mxGeometry>
        </mxCell>
        <mxCell id="VfQvzh1gx931IIodMsVt-353" value="" style="endArrow=classic;html=1;rounded=0;exitX=0;exitY=0.5;exitDx=0;exitDy=0;entryX=0.014;entryY=0.912;entryDx=0;entryDy=0;entryPerimeter=0;" edge="1" parent="1" source="VfQvzh1gx931IIodMsVt-249" target="VfQvzh1gx931IIodMsVt-241">
          <mxGeometry width="50" height="50" relative="1" as="geometry">
            <mxPoint x="1250" y="1040" as="sourcePoint" />
            <mxPoint x="1480" y="700" as="targetPoint" />
            <Array as="points">
              <mxPoint x="1280" y="1234" />
              <mxPoint x="1360" y="810" />
            </Array>
          </mxGeometry>
        </mxCell>
        <mxCell id="VfQvzh1gx931IIodMsVt-365" value="" style="endArrow=classic;html=1;rounded=0;exitX=1;exitY=0.5;exitDx=0;exitDy=0;entryX=1;entryY=0.5;entryDx=0;entryDy=0;" edge="1" parent="1" source="VfQvzh1gx931IIodMsVt-255" target="VfQvzh1gx931IIodMsVt-241">
          <mxGeometry width="50" height="50" relative="1" as="geometry">
            <mxPoint x="2590" y="1000" as="sourcePoint" />
            <mxPoint x="1910" y="790" as="targetPoint" />
            <Array as="points">
              <mxPoint x="2200" y="1234" />
              <mxPoint x="2010" y="830" />
            </Array>
          </mxGeometry>
        </mxCell>
        <mxCell id="VfQvzh1gx931IIodMsVt-371" value="" style="endArrow=classic;html=1;rounded=0;exitX=0;exitY=0.5;exitDx=0;exitDy=0;entryX=0.5;entryY=0;entryDx=0;entryDy=0;" edge="1" parent="1" source="VfQvzh1gx931IIodMsVt-244" target="VfQvzh1gx931IIodMsVt-245">
          <mxGeometry width="50" height="50" relative="1" as="geometry">
            <mxPoint x="2130" y="820" as="sourcePoint" />
            <mxPoint x="2180" y="770" as="targetPoint" />
          </mxGeometry>
        </mxCell>
        <mxCell id="VfQvzh1gx931IIodMsVt-373" value="" style="endArrow=classic;html=1;rounded=0;exitX=0;exitY=1;exitDx=0;exitDy=0;entryX=0.5;entryY=0;entryDx=0;entryDy=0;" edge="1" parent="1" source="VfQvzh1gx931IIodMsVt-244" target="VfQvzh1gx931IIodMsVt-248">
          <mxGeometry width="50" height="50" relative="1" as="geometry">
            <mxPoint x="2000" y="860" as="sourcePoint" />
            <mxPoint x="2050" y="810" as="targetPoint" />
          </mxGeometry>
        </mxCell>
        <mxCell id="VfQvzh1gx931IIodMsVt-249" value="Tampilkan Deskripsi Parfum" style="whiteSpace=wrap;strokeWidth=2;" vertex="1" parent="1">
          <mxGeometry x="1288.24" y="1210" width="257" height="48" as="geometry" />
        </mxCell>
        <mxCell id="VfQvzh1gx931IIodMsVt-376" value="" style="endArrow=classic;html=1;rounded=0;exitX=1;exitY=1;exitDx=0;exitDy=0;entryX=0.5;entryY=0;entryDx=0;entryDy=0;" edge="1" parent="1" source="VfQvzh1gx931IIodMsVt-244" target="VfQvzh1gx931IIodMsVt-250">
          <mxGeometry width="50" height="50" relative="1" as="geometry">
            <mxPoint x="2180" y="960" as="sourcePoint" />
            <mxPoint x="2230" y="910" as="targetPoint" />
          </mxGeometry>
        </mxCell>
        <mxCell id="VfQvzh1gx931IIodMsVt-379" value="" style="endArrow=classic;html=1;rounded=0;exitX=1;exitY=0.5;exitDx=0;exitDy=0;entryX=1;entryY=1;entryDx=0;entryDy=0;" edge="1" parent="1" source="VfQvzh1gx931IIodMsVt-252" target="VfQvzh1gx931IIodMsVt-241">
          <mxGeometry width="50" height="50" relative="1" as="geometry">
            <mxPoint x="2180" y="960" as="sourcePoint" />
            <mxPoint x="2230" y="910" as="targetPoint" />
            <Array as="points">
              <mxPoint x="1830" y="1234" />
              <mxPoint x="1790" y="820" />
            </Array>
          </mxGeometry>
        </mxCell>
        <mxCell id="VfQvzh1gx931IIodMsVt-380" value="" style="endArrow=classic;html=1;rounded=0;exitX=1;exitY=0.5;exitDx=0;exitDy=0;entryX=0.5;entryY=0;entryDx=0;entryDy=0;" edge="1" parent="1" source="VfQvzh1gx931IIodMsVt-244" target="VfQvzh1gx931IIodMsVt-253">
          <mxGeometry width="50" height="50" relative="1" as="geometry">
            <mxPoint x="2250" y="940" as="sourcePoint" />
            <mxPoint x="2300" y="890" as="targetPoint" />
          </mxGeometry>
        </mxCell>
        <mxCell id="VfQvzh1gx931IIodMsVt-383" value="" style="endArrow=classic;html=1;rounded=0;exitX=0;exitY=0.25;exitDx=0;exitDy=0;entryX=0;entryY=0;entryDx=0;entryDy=0;" edge="1" parent="1" source="VfQvzh1gx931IIodMsVt-256" target="VfQvzh1gx931IIodMsVt-235">
          <mxGeometry width="50" height="50" relative="1" as="geometry">
            <mxPoint x="2420" y="740" as="sourcePoint" />
            <mxPoint x="2470" y="690" as="targetPoint" />
            <Array as="points">
              <mxPoint x="930" y="1359" />
              <mxPoint x="930" y="234" />
            </Array>
          </mxGeometry>
        </mxCell>
        <mxCell id="VfQvzh1gx931IIodMsVt-385" value="" style="endArrow=classic;html=1;rounded=0;exitX=1;exitY=0.5;exitDx=0;exitDy=0;entryX=0;entryY=0.5;entryDx=0;entryDy=0;" edge="1" parent="1" source="VfQvzh1gx931IIodMsVt-240" target="VfQvzh1gx931IIodMsVt-243">
          <mxGeometry width="50" height="50" relative="1" as="geometry">
            <mxPoint x="2850" y="300" as="sourcePoint" />
            <mxPoint x="2900" y="250" as="targetPoint" />
          </mxGeometry>
        </mxCell>
        <mxCell id="VfQvzh1gx931IIodMsVt-386" value="" style="endArrow=classic;html=1;rounded=0;exitX=0;exitY=0.25;exitDx=0;exitDy=0;entryX=1;entryY=0.5;entryDx=0;entryDy=0;" edge="1" parent="1" source="VfQvzh1gx931IIodMsVt-235" target="VfQvzh1gx931IIodMsVt-236">
          <mxGeometry width="50" height="50" relative="1" as="geometry">
            <mxPoint x="2790" y="300" as="sourcePoint" />
            <mxPoint x="2840" y="250" as="targetPoint" />
          </mxGeometry>
        </mxCell>
        <mxCell id="VfQvzh1gx931IIodMsVt-387" value="" style="endArrow=classic;html=1;rounded=0;exitX=0;exitY=0.5;exitDx=0;exitDy=0;entryX=1;entryY=0.5;entryDx=0;entryDy=0;" edge="1" parent="1" source="VfQvzh1gx931IIodMsVt-236" target="VfQvzh1gx931IIodMsVt-239">
          <mxGeometry width="50" height="50" relative="1" as="geometry">
            <mxPoint x="2790" y="300" as="sourcePoint" />
            <mxPoint x="2840" y="250" as="targetPoint" />
          </mxGeometry>
        </mxCell>
        <mxCell id="VfQvzh1gx931IIodMsVt-388" value="" style="endArrow=classic;html=1;rounded=0;exitX=0;exitY=0.5;exitDx=0;exitDy=0;entryX=0.5;entryY=0;entryDx=0;entryDy=0;" edge="1" parent="1" source="VfQvzh1gx931IIodMsVt-239" target="VfQvzh1gx931IIodMsVt-241">
          <mxGeometry width="50" height="50" relative="1" as="geometry">
            <mxPoint x="2180" y="300" as="sourcePoint" />
            <mxPoint x="2230" y="250" as="targetPoint" />
          </mxGeometry>
        </mxCell>
        <mxCell id="VfQvzh1gx931IIodMsVt-389" value="" style="endArrow=classic;html=1;rounded=0;exitX=1;exitY=0.5;exitDx=0;exitDy=0;entryX=0.5;entryY=0;entryDx=0;entryDy=0;entryPerimeter=0;" edge="1" parent="1" source="VfQvzh1gx931IIodMsVt-235" target="VfQvzh1gx931IIodMsVt-238">
          <mxGeometry width="50" height="50" relative="1" as="geometry">
            <mxPoint x="3060" y="480" as="sourcePoint" />
            <mxPoint x="3110" y="430" as="targetPoint" />
          </mxGeometry>
        </mxCell>
        <mxCell id="VfQvzh1gx931IIodMsVt-390" value="" style="endArrow=classic;html=1;rounded=0;exitX=0.5;exitY=1;exitDx=0;exitDy=0;entryX=0.5;entryY=0;entryDx=0;entryDy=0;" edge="1" parent="1" source="VfQvzh1gx931IIodMsVt-265" target="VfQvzh1gx931IIodMsVt-266">
          <mxGeometry width="50" height="50" relative="1" as="geometry">
            <mxPoint x="3240" y="630" as="sourcePoint" />
            <mxPoint x="3290" y="580" as="targetPoint" />
          </mxGeometry>
        </mxCell>
        <mxCell id="VfQvzh1gx931IIodMsVt-393" value="" style="endArrow=classic;html=1;rounded=0;exitX=0.5;exitY=1;exitDx=0;exitDy=0;entryX=0.5;entryY=0;entryDx=0;entryDy=0;" edge="1" parent="1" source="VfQvzh1gx931IIodMsVt-240" target="VfQvzh1gx931IIodMsVt-242">
          <mxGeometry width="50" height="50" relative="1" as="geometry">
            <mxPoint x="2760" y="550" as="sourcePoint" />
            <mxPoint x="2810" y="500" as="targetPoint" />
            <Array as="points">
              <mxPoint x="2150" y="840" />
            </Array>
          </mxGeometry>
        </mxCell>
        <mxCell id="VfQvzh1gx931IIodMsVt-394" value="" style="endArrow=classic;html=1;rounded=0;exitX=0.5;exitY=0;exitDx=0;exitDy=0;entryX=0;entryY=0.5;entryDx=0;entryDy=0;" edge="1" parent="1" source="VfQvzh1gx931IIodMsVt-243" target="VfQvzh1gx931IIodMsVt-235">
          <mxGeometry width="50" height="50" relative="1" as="geometry">
            <mxPoint x="2800" y="470" as="sourcePoint" />
            <mxPoint x="2850" y="420" as="targetPoint" />
            <Array as="points">
              <mxPoint x="2330" y="390" />
            </Array>
          </mxGeometry>
        </mxCell>
        <mxCell id="VfQvzh1gx931IIodMsVt-395" value="" style="endArrow=classic;html=1;rounded=0;exitX=0.25;exitY=1;exitDx=0;exitDy=0;entryX=0.5;entryY=0;entryDx=0;entryDy=0;" edge="1" parent="1" source="VfQvzh1gx931IIodMsVt-257" target="VfQvzh1gx931IIodMsVt-258">
          <mxGeometry width="50" height="50" relative="1" as="geometry">
            <mxPoint x="2460" y="1130" as="sourcePoint" />
            <mxPoint x="2510" y="1080" as="targetPoint" />
          </mxGeometry>
        </mxCell>
        <mxCell id="VfQvzh1gx931IIodMsVt-396" value="" style="endArrow=classic;html=1;rounded=0;exitX=0.75;exitY=1;exitDx=0;exitDy=0;entryX=0.5;entryY=0;entryDx=0;entryDy=0;" edge="1" parent="1" source="VfQvzh1gx931IIodMsVt-257" target="VfQvzh1gx931IIodMsVt-260">
          <mxGeometry width="50" height="50" relative="1" as="geometry">
            <mxPoint x="2406" y="1350" as="sourcePoint" />
            <mxPoint x="2420" y="1420" as="targetPoint" />
          </mxGeometry>
        </mxCell>
        <mxCell id="VfQvzh1gx931IIodMsVt-397" value="" style="endArrow=classic;html=1;rounded=0;exitX=0;exitY=0.5;exitDx=0;exitDy=0;entryX=0;entryY=0.5;entryDx=0;entryDy=0;" edge="1" parent="1" source="VfQvzh1gx931IIodMsVt-259" target="VfQvzh1gx931IIodMsVt-242">
          <mxGeometry width="50" height="50" relative="1" as="geometry">
            <mxPoint x="2460" y="1130" as="sourcePoint" />
            <mxPoint x="2510" y="1080" as="targetPoint" />
            <Array as="points">
              <mxPoint x="2070" y="1541" />
              <mxPoint x="2140" y="1380" />
              <mxPoint x="2180" y="1280" />
            </Array>
          </mxGeometry>
        </mxCell>
        <mxCell id="VfQvzh1gx931IIodMsVt-401" value="" style="endArrow=classic;html=1;rounded=0;entryX=0.25;entryY=0;entryDx=0;entryDy=0;" edge="1" parent="1" target="VfQvzh1gx931IIodMsVt-235">
          <mxGeometry width="50" height="50" relative="1" as="geometry">
            <mxPoint x="2340" y="1620" as="sourcePoint" />
            <mxPoint x="2530" y="210" as="targetPoint" />
            <Array as="points">
              <mxPoint x="960" y="1620" />
              <mxPoint x="960" y="200" />
              <mxPoint x="2470" y="200" />
              <mxPoint x="2524" y="200" />
            </Array>
          </mxGeometry>
        </mxCell>
      </root>
    </mxGraphModel>
  </diagram>
</mxfile>
